%TF.GenerationSoftware,KiCad,Pcbnew,8.0.4*%
%TF.CreationDate,2024-08-01T20:05:25+05:30*%
%TF.ProjectId,Atmega32,41746d65-6761-4333-922e-6b696361645f,rev?*%
%TF.SameCoordinates,Original*%
%TF.FileFunction,Soldermask,Top*%
%TF.FilePolarity,Negative*%
%FSLAX46Y46*%
G04 Gerber Fmt 4.6, Leading zero omitted, Abs format (unit mm)*
G04 Created by KiCad (PCBNEW 8.0.4) date 2024-08-01 20:05:25*
%MOMM*%
%LPD*%
G01*
G04 APERTURE LIST*
G04 Aperture macros list*
%AMRoundRect*
0 Rectangle with rounded corners*
0 $1 Rounding radius*
0 $2 $3 $4 $5 $6 $7 $8 $9 X,Y pos of 4 corners*
0 Add a 4 corners polygon primitive as box body*
4,1,4,$2,$3,$4,$5,$6,$7,$8,$9,$2,$3,0*
0 Add four circle primitives for the rounded corners*
1,1,$1+$1,$2,$3*
1,1,$1+$1,$4,$5*
1,1,$1+$1,$6,$7*
1,1,$1+$1,$8,$9*
0 Add four rect primitives between the rounded corners*
20,1,$1+$1,$2,$3,$4,$5,0*
20,1,$1+$1,$4,$5,$6,$7,0*
20,1,$1+$1,$6,$7,$8,$9,0*
20,1,$1+$1,$8,$9,$2,$3,0*%
G04 Aperture macros list end*
%ADD10C,0.000000*%
%ADD11C,1.498600*%
%ADD12R,0.863600X0.812800*%
%ADD13R,1.651000X1.651000*%
%ADD14C,1.651000*%
%ADD15C,2.133600*%
%ADD16R,1.800000X1.800000*%
%ADD17C,1.800000*%
%ADD18C,1.600000*%
%ADD19O,1.600000X1.600000*%
%ADD20R,0.812800X0.863600*%
%ADD21R,2.250000X2.250000*%
%ADD22C,2.250000*%
%ADD23C,1.270000*%
%ADD24R,0.609600X1.549400*%
%ADD25C,1.300000*%
%ADD26RoundRect,0.102000X-1.650000X0.400000X-1.650000X-0.400000X1.650000X-0.400000X1.650000X0.400000X0*%
%ADD27RoundRect,0.102000X-3.020000X1.700000X-3.020000X-1.700000X3.020000X-1.700000X3.020000X1.700000X0*%
%ADD28C,1.193800*%
%ADD29R,1.500000X0.550000*%
%ADD30R,0.550000X1.500000*%
G04 APERTURE END LIST*
D10*
%TO.C,U2*%
G36*
X173101000Y-73596500D02*
G01*
X169799000Y-73596500D01*
X169799000Y-71335900D01*
X173101000Y-71335900D01*
X173101000Y-73596500D01*
G37*
%TD*%
D11*
%TO.C,prog1*%
X144018000Y-52070000D03*
X141478000Y-52070000D03*
X144018000Y-54610000D03*
X141478000Y-54610000D03*
X144018000Y-57150000D03*
X141478000Y-57150000D03*
X144018000Y-59690000D03*
X141478000Y-59690000D03*
X144018000Y-62230000D03*
X141478000Y-62230000D03*
%TD*%
D12*
%TO.C,C3*%
X150952200Y-48768000D03*
X152400000Y-48768000D03*
%TD*%
D13*
%TO.C,PA1*%
X191008000Y-41402000D03*
D14*
X188468000Y-41402000D03*
X185928000Y-41402000D03*
X183388000Y-41402000D03*
X180848000Y-41402000D03*
X178308000Y-41402000D03*
X175768000Y-41402000D03*
X173228000Y-41402000D03*
%TD*%
D15*
%TO.C,R3*%
X151130000Y-72390000D03*
X151130000Y-74930000D03*
X151130000Y-77470000D03*
%TD*%
D16*
%TO.C,D1*%
X143764000Y-70866000D03*
D17*
X143764000Y-73406000D03*
%TD*%
D13*
%TO.C,PD1*%
X150876000Y-63500000D03*
D14*
X153416000Y-63500000D03*
X155956000Y-63500000D03*
X158496000Y-63500000D03*
X161036000Y-63500000D03*
X163576000Y-63500000D03*
X166116000Y-63500000D03*
X168656000Y-63500000D03*
%TD*%
D18*
%TO.C,R1*%
X135382000Y-42418000D03*
D19*
X135382000Y-50038000D03*
%TD*%
D20*
%TO.C,C1*%
X150114000Y-53809900D03*
X150114000Y-52362100D03*
%TD*%
D21*
%TO.C,SW1*%
X156158000Y-58420000D03*
D22*
X149658000Y-58420000D03*
%TD*%
D20*
%TO.C,C2*%
X152908000Y-53848000D03*
X152908000Y-52400200D03*
%TD*%
D13*
%TO.C,PC1*%
X173228000Y-63500000D03*
D14*
X175768000Y-63500000D03*
X178308000Y-63500000D03*
X180848000Y-63500000D03*
X183388000Y-63500000D03*
X185928000Y-63500000D03*
X188468000Y-63500000D03*
X191008000Y-63500000D03*
%TD*%
D23*
%TO.C,lcd1*%
X156972000Y-68580000D03*
X159512000Y-68580000D03*
X162052000Y-68580000D03*
X164592000Y-68580000D03*
X167132000Y-68580000D03*
X169672000Y-68580000D03*
X172212000Y-68580000D03*
X174752000Y-68580000D03*
X177292000Y-68580000D03*
X179832000Y-68580000D03*
X182372000Y-68580000D03*
X184912000Y-68580000D03*
X187452000Y-68580000D03*
X189992000Y-68580000D03*
%TD*%
D24*
%TO.C,U2*%
X169151300Y-78917800D03*
X171450000Y-78917800D03*
X173748700Y-78917800D03*
%TD*%
D25*
%TO.C,j1*%
X188214000Y-54820000D03*
X188214000Y-49320000D03*
D26*
X181064000Y-50195000D03*
X181064000Y-52695000D03*
X181064000Y-53945000D03*
X181064000Y-51445000D03*
D27*
X187634000Y-58870000D03*
X187634000Y-45270000D03*
%TD*%
D13*
%TO.C,PB1*%
X150622000Y-41402000D03*
D14*
X153162000Y-41402000D03*
X155702000Y-41402000D03*
X158242000Y-41402000D03*
X160782000Y-41402000D03*
X163322000Y-41402000D03*
X165862000Y-41402000D03*
X168402000Y-41402000D03*
%TD*%
D18*
%TO.C,R5*%
X135382000Y-54356000D03*
D19*
X135382000Y-61976000D03*
%TD*%
D23*
%TO.C,v1*%
X157226000Y-78486000D03*
X159766000Y-78486000D03*
X162306000Y-78486000D03*
X164846000Y-78486000D03*
%TD*%
D12*
%TO.C,C5*%
X138976100Y-72351900D03*
X140423900Y-72351900D03*
%TD*%
D28*
%TO.C,Y1*%
X158750000Y-52832000D03*
X158750000Y-47951999D03*
%TD*%
D18*
%TO.C,R4*%
X139192000Y-41402000D03*
D19*
X146812000Y-41402000D03*
%TD*%
D29*
%TO.C,U1*%
X165052000Y-48466000D03*
X165052000Y-49266000D03*
X165052000Y-50066000D03*
X165052000Y-50866000D03*
X165052000Y-51666000D03*
X165052000Y-52466000D03*
X165052000Y-53266000D03*
X165052000Y-54066000D03*
X165052000Y-54866000D03*
X165052000Y-55666000D03*
X165052000Y-56466000D03*
D30*
X166752000Y-58166000D03*
X167552000Y-58166000D03*
X168352000Y-58166000D03*
X169152000Y-58166000D03*
X169952000Y-58166000D03*
X170752000Y-58166000D03*
X171552000Y-58166000D03*
X172352000Y-58166000D03*
X173152000Y-58166000D03*
X173952000Y-58166000D03*
X174752000Y-58166000D03*
D29*
X176452000Y-56466000D03*
X176452000Y-55666000D03*
X176452000Y-54866000D03*
X176452000Y-54066000D03*
X176452000Y-53266000D03*
X176452000Y-52466000D03*
X176452000Y-51666000D03*
X176452000Y-50866000D03*
X176452000Y-50066000D03*
X176452000Y-49266000D03*
X176452000Y-48466000D03*
D30*
X174752000Y-46766000D03*
X173952000Y-46766000D03*
X173152000Y-46766000D03*
X172352000Y-46766000D03*
X171552000Y-46766000D03*
X170752000Y-46766000D03*
X169952000Y-46766000D03*
X169152000Y-46766000D03*
X168352000Y-46766000D03*
X167552000Y-46766000D03*
X166752000Y-46766000D03*
%TD*%
D23*
%TO.C,g1*%
X156972000Y-73660000D03*
X159512000Y-73660000D03*
X162052000Y-73660000D03*
X164592000Y-73660000D03*
%TD*%
D18*
%TO.C,R2*%
X146812000Y-77724000D03*
D19*
X139192000Y-77724000D03*
%TD*%
G36*
X177235783Y-38373685D02*
G01*
X177281538Y-38426489D01*
X177292742Y-38477253D01*
X177545243Y-80392475D01*
X177525962Y-80459632D01*
X177473435Y-80505704D01*
X177420475Y-80517220D01*
X136775230Y-80264765D01*
X136708314Y-80244664D01*
X136662888Y-80191577D01*
X136652000Y-80140767D01*
X136652000Y-38478000D01*
X136671685Y-38410961D01*
X136724489Y-38365206D01*
X136776000Y-38354000D01*
X177168744Y-38354000D01*
X177235783Y-38373685D01*
G37*
M02*
