%TF.GenerationSoftware,KiCad,Pcbnew,8.0.4*%
%TF.CreationDate,2024-08-01T20:05:25+05:30*%
%TF.ProjectId,Atmega32,41746d65-6761-4333-922e-6b696361645f,rev?*%
%TF.SameCoordinates,Original*%
%TF.FileFunction,Copper,L1,Top*%
%TF.FilePolarity,Positive*%
%FSLAX46Y46*%
G04 Gerber Fmt 4.6, Leading zero omitted, Abs format (unit mm)*
G04 Created by KiCad (PCBNEW 8.0.4) date 2024-08-01 20:05:25*
%MOMM*%
%LPD*%
G01*
G04 APERTURE LIST*
%TA.AperFunction,EtchedComponent*%
%ADD10C,0.000000*%
%TD*%
%TA.AperFunction,ComponentPad*%
%ADD11C,1.498600*%
%TD*%
%TA.AperFunction,SMDPad,CuDef*%
%ADD12R,0.863600X0.812800*%
%TD*%
%TA.AperFunction,ComponentPad*%
%ADD13R,1.651000X1.651000*%
%TD*%
%TA.AperFunction,ComponentPad*%
%ADD14C,1.651000*%
%TD*%
%TA.AperFunction,ComponentPad*%
%ADD15C,2.133600*%
%TD*%
%TA.AperFunction,ComponentPad*%
%ADD16R,1.800000X1.800000*%
%TD*%
%TA.AperFunction,ComponentPad*%
%ADD17C,1.800000*%
%TD*%
%TA.AperFunction,ComponentPad*%
%ADD18C,1.600000*%
%TD*%
%TA.AperFunction,ComponentPad*%
%ADD19O,1.600000X1.600000*%
%TD*%
%TA.AperFunction,SMDPad,CuDef*%
%ADD20R,0.812800X0.863600*%
%TD*%
%TA.AperFunction,ComponentPad*%
%ADD21R,2.250000X2.250000*%
%TD*%
%TA.AperFunction,ComponentPad*%
%ADD22C,2.250000*%
%TD*%
%TA.AperFunction,ComponentPad*%
%ADD23C,1.270000*%
%TD*%
%TA.AperFunction,SMDPad,CuDef*%
%ADD24R,0.609600X1.549400*%
%TD*%
%TA.AperFunction,SMDPad,CuDef*%
%ADD25R,3.300000X0.800000*%
%TD*%
%TA.AperFunction,SMDPad,CuDef*%
%ADD26R,6.040000X3.400000*%
%TD*%
%TA.AperFunction,ComponentPad*%
%ADD27C,1.193800*%
%TD*%
%TA.AperFunction,SMDPad,CuDef*%
%ADD28R,1.500000X0.550000*%
%TD*%
%TA.AperFunction,SMDPad,CuDef*%
%ADD29R,0.550000X1.500000*%
%TD*%
%TA.AperFunction,ViaPad*%
%ADD30C,0.600000*%
%TD*%
%TA.AperFunction,Conductor*%
%ADD31C,0.200000*%
%TD*%
G04 APERTURE END LIST*
D10*
%TA.AperFunction,EtchedComponent*%
%TO.C,U2*%
G36*
X173075600Y-73240900D02*
G01*
X169824400Y-73240900D01*
X169824400Y-71691500D01*
X173075600Y-71691500D01*
X173075600Y-73240900D01*
G37*
%TD.AperFunction*%
%TD*%
D11*
%TO.P,prog1,1,1*%
%TO.N,/MOSI*%
X144018000Y-52070000D03*
%TO.P,prog1,2,2*%
%TO.N,+5*%
X141478000Y-52070000D03*
%TO.P,prog1,3,3*%
%TO.N,unconnected-(prog1-Pad3)*%
X144018000Y-54610000D03*
%TO.P,prog1,4,4*%
%TO.N,GND*%
X141478000Y-54610000D03*
%TO.P,prog1,5,5*%
%TO.N,/RESET*%
X144018000Y-57150000D03*
%TO.P,prog1,6,6*%
%TO.N,GND*%
X141478000Y-57150000D03*
%TO.P,prog1,7,7*%
%TO.N,/SCK*%
X144018000Y-59690000D03*
%TO.P,prog1,8,8*%
%TO.N,GND*%
X141478000Y-59690000D03*
%TO.P,prog1,9,9*%
%TO.N,/MISO*%
X144018000Y-62230000D03*
%TO.P,prog1,10,10*%
%TO.N,GND*%
X141478000Y-62230000D03*
%TD*%
D12*
%TO.P,C3,1,1*%
%TO.N,GND*%
X150952200Y-48768000D03*
%TO.P,C3,2,2*%
%TO.N,Net-(U1-AREF)*%
X152400000Y-48768000D03*
%TD*%
D13*
%TO.P,PA1,1,1*%
%TO.N,Net-(U1-PA7_(ADC7))*%
X191008000Y-41402000D03*
D14*
%TO.P,PA1,2,2*%
%TO.N,Net-(U1-PA6_(ADC6))*%
X188468000Y-41402000D03*
%TO.P,PA1,3,3*%
%TO.N,Net-(U1-PA5_(ADC5))*%
X185928000Y-41402000D03*
%TO.P,PA1,4,4*%
%TO.N,Net-(U1-PA4_(ADC4))*%
X183388000Y-41402000D03*
%TO.P,PA1,5,5*%
%TO.N,Net-(U1-PA3_(ADC3))*%
X180848000Y-41402000D03*
%TO.P,PA1,6,6*%
%TO.N,Net-(U1-PA2_(ADC2))*%
X178308000Y-41402000D03*
%TO.P,PA1,7,7*%
%TO.N,Net-(U1-PA1_(ADC1))*%
X175768000Y-41402000D03*
%TO.P,PA1,8,8*%
%TO.N,Net-(U1-PA0_(ADC0))*%
X173228000Y-41402000D03*
%TD*%
D15*
%TO.P,R3,1,CCW*%
%TO.N,GND*%
X151130000Y-72390000D03*
%TO.P,R3,2,WIPER*%
%TO.N,Net-(R3-WIPER)*%
X151130000Y-74930000D03*
%TO.P,R3,3,CW*%
%TO.N,+5*%
X151130000Y-77470000D03*
%TD*%
D16*
%TO.P,D1,1,C*%
%TO.N,GND*%
X143764000Y-70866000D03*
D17*
%TO.P,D1,2,A*%
%TO.N,Net-(D1-A)*%
X143764000Y-73406000D03*
%TD*%
D13*
%TO.P,PD1,1,1*%
%TO.N,Net-(U1-PD0_(RXD))*%
X150876000Y-63500000D03*
D14*
%TO.P,PD1,2,2*%
%TO.N,Net-(U1-PD1_(TXD))*%
X153416000Y-63500000D03*
%TO.P,PD1,3,3*%
%TO.N,Net-(U1-PD2_(INT0))*%
X155956000Y-63500000D03*
%TO.P,PD1,4,4*%
%TO.N,Net-(U1-PD3_(INT1))*%
X158496000Y-63500000D03*
%TO.P,PD1,5,5*%
%TO.N,Net-(U1-PD4_(OC1B))*%
X161036000Y-63500000D03*
%TO.P,PD1,6,6*%
%TO.N,/EN*%
X163576000Y-63500000D03*
%TO.P,PD1,7,7*%
%TO.N,/RW*%
X166116000Y-63500000D03*
%TO.P,PD1,8,8*%
%TO.N,/RS*%
X168656000Y-63500000D03*
%TD*%
D18*
%TO.P,R1,1,1*%
%TO.N,+5*%
X135382000Y-42418000D03*
D19*
%TO.P,R1,2,2*%
%TO.N,/RESET*%
X135382000Y-50038000D03*
%TD*%
D20*
%TO.P,C1,1,1*%
%TO.N,Net-(U1-XTAL1)*%
X150114000Y-53809900D03*
%TO.P,C1,2,2*%
%TO.N,GND*%
X150114000Y-52362100D03*
%TD*%
D21*
%TO.P,SW1,1,1*%
%TO.N,GND*%
X156158000Y-58420000D03*
D22*
%TO.P,SW1,2,2*%
%TO.N,/RESET*%
X149658000Y-58420000D03*
%TD*%
D20*
%TO.P,C2,1,1*%
%TO.N,Net-(U1-XTAL2)*%
X152908000Y-53848000D03*
%TO.P,C2,2,2*%
%TO.N,GND*%
X152908000Y-52400200D03*
%TD*%
D13*
%TO.P,PC1,1,1*%
%TO.N,/DO*%
X173228000Y-63500000D03*
D14*
%TO.P,PC1,2,2*%
%TO.N,/D1*%
X175768000Y-63500000D03*
%TO.P,PC1,3,3*%
%TO.N,/D2*%
X178308000Y-63500000D03*
%TO.P,PC1,4,4*%
%TO.N,/D3*%
X180848000Y-63500000D03*
%TO.P,PC1,5,5*%
%TO.N,/D4*%
X183388000Y-63500000D03*
%TO.P,PC1,6,6*%
%TO.N,/D5*%
X185928000Y-63500000D03*
%TO.P,PC1,7,7*%
%TO.N,/D6*%
X188468000Y-63500000D03*
%TO.P,PC1,8,8*%
%TO.N,/D7*%
X191008000Y-63500000D03*
%TD*%
D23*
%TO.P,lcd1,1,1*%
%TO.N,GND*%
X156972000Y-68580000D03*
%TO.P,lcd1,2,2*%
%TO.N,+5*%
X159512000Y-68580000D03*
%TO.P,lcd1,3,3*%
%TO.N,Net-(R3-WIPER)*%
X162052000Y-68580000D03*
%TO.P,lcd1,4,4*%
%TO.N,/RS*%
X164592000Y-68580000D03*
%TO.P,lcd1,5,5*%
%TO.N,/RW*%
X167132000Y-68580000D03*
%TO.P,lcd1,6,6*%
%TO.N,/EN*%
X169672000Y-68580000D03*
%TO.P,lcd1,7,7*%
%TO.N,/DO*%
X172212000Y-68580000D03*
%TO.P,lcd1,8,8*%
%TO.N,/D1*%
X174752000Y-68580000D03*
%TO.P,lcd1,9,9*%
%TO.N,/D2*%
X177292000Y-68580000D03*
%TO.P,lcd1,10,10*%
%TO.N,/D3*%
X179832000Y-68580000D03*
%TO.P,lcd1,11,11*%
%TO.N,/D4*%
X182372000Y-68580000D03*
%TO.P,lcd1,12,12*%
%TO.N,/D5*%
X184912000Y-68580000D03*
%TO.P,lcd1,13,13*%
%TO.N,/D6*%
X187452000Y-68580000D03*
%TO.P,lcd1,14,14*%
%TO.N,/D7*%
X189992000Y-68580000D03*
%TD*%
D24*
%TO.P,U2,1,ADJ/GND*%
%TO.N,GND*%
X169151300Y-78917800D03*
%TO.P,U2,2,OUT*%
%TO.N,+5*%
X171450000Y-78917800D03*
%TO.P,U2,3,IN*%
%TO.N,Net-(U2-IN)*%
X173748700Y-78917800D03*
%TD*%
D25*
%TO.P,j1,1,VBUS*%
%TO.N,Net-(U2-IN)*%
X181064000Y-50195000D03*
%TO.P,j1,2,D-*%
%TO.N,unconnected-(j1-D--Pad2)*%
X181064000Y-52695000D03*
%TO.P,j1,3,D+*%
%TO.N,unconnected-(j1-D+-Pad3)*%
X181064000Y-53945000D03*
%TO.P,j1,4,GND*%
%TO.N,GND*%
X181064000Y-51445000D03*
D26*
%TO.P,j1,S1*%
%TO.N,N/C*%
X187634000Y-58870000D03*
%TO.P,j1,S2*%
X187634000Y-45270000D03*
%TD*%
D13*
%TO.P,PB1,1,1*%
%TO.N,/SCK*%
X150622000Y-41402000D03*
D14*
%TO.P,PB1,2,2*%
%TO.N,/MISO*%
X153162000Y-41402000D03*
%TO.P,PB1,3,3*%
%TO.N,/MOSI*%
X155702000Y-41402000D03*
%TO.P,PB1,4,4*%
%TO.N,Net-(U1-PB4_(~{SS}))*%
X158242000Y-41402000D03*
%TO.P,PB1,5,5*%
%TO.N,Net-(U1-PB3_(OC0{slash}AIN1))*%
X160782000Y-41402000D03*
%TO.P,PB1,6,6*%
%TO.N,Net-(U1-PB2_(INT2{slash}AIN0))*%
X163322000Y-41402000D03*
%TO.P,PB1,7,7*%
%TO.N,Net-(U1-PB1_(T1))*%
X165862000Y-41402000D03*
%TO.P,PB1,8,8*%
%TO.N,Net-(U1-PB0_(XCK{slash}T0))*%
X168402000Y-41402000D03*
%TD*%
D18*
%TO.P,R5,1,1*%
%TO.N,+5*%
X135382000Y-54356000D03*
D19*
%TO.P,R5,2,2*%
%TO.N,/MOSI*%
X135382000Y-61976000D03*
%TD*%
D23*
%TO.P,v1,1,1*%
%TO.N,+5*%
X157226000Y-78486000D03*
%TO.P,v1,2,2*%
X159766000Y-78486000D03*
%TO.P,v1,3,3*%
X162306000Y-78486000D03*
%TO.P,v1,4,4*%
X164846000Y-78486000D03*
%TD*%
D12*
%TO.P,C5,1,1*%
%TO.N,+5*%
X138976100Y-72351900D03*
%TO.P,C5,2,2*%
%TO.N,GND*%
X140423900Y-72351900D03*
%TD*%
D27*
%TO.P,Y1,1,1*%
%TO.N,Net-(U1-XTAL2)*%
X158750000Y-52832000D03*
%TO.P,Y1,2,2*%
%TO.N,Net-(U1-XTAL1)*%
X158750000Y-47951999D03*
%TD*%
D18*
%TO.P,R4,1,1*%
%TO.N,+5*%
X139192000Y-41402000D03*
D19*
%TO.P,R4,2,2*%
%TO.N,Net-(U1-PB4_(~{SS}))*%
X146812000Y-41402000D03*
%TD*%
D28*
%TO.P,U1,1,PB5_(MOSI)*%
%TO.N,/MOSI*%
X165052000Y-48466000D03*
%TO.P,U1,2,PB6_(MISO)*%
%TO.N,/MISO*%
X165052000Y-49266000D03*
%TO.P,U1,3,PB7_(SCK)*%
%TO.N,/SCK*%
X165052000Y-50066000D03*
%TO.P,U1,4,~{RESET}*%
%TO.N,/RESET*%
X165052000Y-50866000D03*
%TO.P,U1,5,VCC*%
%TO.N,+5*%
X165052000Y-51666000D03*
%TO.P,U1,6,GND*%
%TO.N,GND*%
X165052000Y-52466000D03*
%TO.P,U1,7,XTAL2*%
%TO.N,Net-(U1-XTAL2)*%
X165052000Y-53266000D03*
%TO.P,U1,8,XTAL1*%
%TO.N,Net-(U1-XTAL1)*%
X165052000Y-54066000D03*
%TO.P,U1,9,PD0_(RXD)*%
%TO.N,Net-(U1-PD0_(RXD))*%
X165052000Y-54866000D03*
%TO.P,U1,10,PD1_(TXD)*%
%TO.N,Net-(U1-PD1_(TXD))*%
X165052000Y-55666000D03*
%TO.P,U1,11,PD2_(INT0)*%
%TO.N,Net-(U1-PD2_(INT0))*%
X165052000Y-56466000D03*
D29*
%TO.P,U1,12,PD3_(INT1)*%
%TO.N,Net-(U1-PD3_(INT1))*%
X166752000Y-58166000D03*
%TO.P,U1,13,PD4_(OC1B)*%
%TO.N,Net-(U1-PD4_(OC1B))*%
X167552000Y-58166000D03*
%TO.P,U1,14,PD5_(OC1A)*%
%TO.N,/EN*%
X168352000Y-58166000D03*
%TO.P,U1,15,PD6_(ICP1)*%
%TO.N,/RW*%
X169152000Y-58166000D03*
%TO.P,U1,16,PD7_(OC2)*%
%TO.N,/RS*%
X169952000Y-58166000D03*
%TO.P,U1,17,VCC*%
%TO.N,+5*%
X170752000Y-58166000D03*
%TO.P,U1,18,GND*%
%TO.N,GND*%
X171552000Y-58166000D03*
%TO.P,U1,19,PC0_(SCL)*%
%TO.N,/DO*%
X172352000Y-58166000D03*
%TO.P,U1,20,PC1_(SDA)*%
%TO.N,/D1*%
X173152000Y-58166000D03*
%TO.P,U1,21,PC2_(TCK)*%
%TO.N,/D2*%
X173952000Y-58166000D03*
%TO.P,U1,22,PC3_(TMS)*%
%TO.N,/D3*%
X174752000Y-58166000D03*
D28*
%TO.P,U1,23,PC4_(TDO)*%
%TO.N,/D4*%
X176452000Y-56466000D03*
%TO.P,U1,24,PC5_(TDI)*%
%TO.N,/D5*%
X176452000Y-55666000D03*
%TO.P,U1,25,PC6_(TOSC1)*%
%TO.N,/D6*%
X176452000Y-54866000D03*
%TO.P,U1,26,PC7_(TOSC2)*%
%TO.N,/D7*%
X176452000Y-54066000D03*
%TO.P,U1,27,AVCC*%
%TO.N,+5*%
X176452000Y-53266000D03*
%TO.P,U1,28,GND*%
%TO.N,GND*%
X176452000Y-52466000D03*
%TO.P,U1,29,AREF*%
%TO.N,Net-(U1-AREF)*%
X176452000Y-51666000D03*
%TO.P,U1,30,PA7_(ADC7)*%
%TO.N,Net-(U1-PA7_(ADC7))*%
X176452000Y-50866000D03*
%TO.P,U1,31,PA6_(ADC6)*%
%TO.N,Net-(U1-PA6_(ADC6))*%
X176452000Y-50066000D03*
%TO.P,U1,32,PA5_(ADC5)*%
%TO.N,Net-(U1-PA5_(ADC5))*%
X176452000Y-49266000D03*
%TO.P,U1,33,PA4_(ADC4)*%
%TO.N,Net-(U1-PA4_(ADC4))*%
X176452000Y-48466000D03*
D29*
%TO.P,U1,34,PA3_(ADC3)*%
%TO.N,Net-(U1-PA3_(ADC3))*%
X174752000Y-46766000D03*
%TO.P,U1,35,PA2_(ADC2)*%
%TO.N,Net-(U1-PA2_(ADC2))*%
X173952000Y-46766000D03*
%TO.P,U1,36,PA1_(ADC1)*%
%TO.N,Net-(U1-PA1_(ADC1))*%
X173152000Y-46766000D03*
%TO.P,U1,37,PA0_(ADC0)*%
%TO.N,Net-(U1-PA0_(ADC0))*%
X172352000Y-46766000D03*
%TO.P,U1,38,VCC*%
%TO.N,+5*%
X171552000Y-46766000D03*
%TO.P,U1,39,GND*%
%TO.N,GND*%
X170752000Y-46766000D03*
%TO.P,U1,40,PB0_(XCK/T0)*%
%TO.N,Net-(U1-PB0_(XCK{slash}T0))*%
X169952000Y-46766000D03*
%TO.P,U1,41,PB1_(T1)*%
%TO.N,Net-(U1-PB1_(T1))*%
X169152000Y-46766000D03*
%TO.P,U1,42,PB2_(INT2/AIN0)*%
%TO.N,Net-(U1-PB2_(INT2{slash}AIN0))*%
X168352000Y-46766000D03*
%TO.P,U1,43,PB3_(OC0/AIN1)*%
%TO.N,Net-(U1-PB3_(OC0{slash}AIN1))*%
X167552000Y-46766000D03*
%TO.P,U1,44,PB4_(~{SS})*%
%TO.N,Net-(U1-PB4_(~{SS}))*%
X166752000Y-46766000D03*
%TD*%
D23*
%TO.P,g1,1,1*%
%TO.N,GND*%
X156972000Y-73660000D03*
%TO.P,g1,2,2*%
X159512000Y-73660000D03*
%TO.P,g1,3,3*%
X162052000Y-73660000D03*
%TO.P,g1,4,4*%
X164592000Y-73660000D03*
%TD*%
D18*
%TO.P,R2,1,1*%
%TO.N,Net-(D1-A)*%
X146812000Y-77724000D03*
D19*
%TO.P,R2,2,2*%
%TO.N,+5*%
X139192000Y-77724000D03*
%TD*%
D30*
%TO.N,/RESET*%
X151130000Y-44450000D03*
%TO.N,/MOSI*%
X153416000Y-39024000D03*
%TO.N,GND*%
X171450000Y-55880000D03*
X169531000Y-53481000D03*
X162306000Y-52578000D03*
X161544000Y-54666000D03*
X174826265Y-51741735D03*
X170180000Y-49784000D03*
%TO.N,Net-(U1-XTAL2)*%
X157226000Y-53848000D03*
%TO.N,Net-(U1-AREF)*%
X173482000Y-49530000D03*
X155448000Y-51562000D03*
%TD*%
D31*
%TO.N,/RESET*%
X135382000Y-50038000D02*
X134282000Y-48938000D01*
X142568700Y-59724635D02*
X143583365Y-60739300D01*
X134282000Y-48938000D02*
X134282000Y-41962365D01*
X144018000Y-57150000D02*
X148388000Y-57150000D01*
X134282000Y-41962365D02*
X135942365Y-40302000D01*
X139647635Y-40302000D02*
X142568700Y-43223065D01*
X147338700Y-60739300D02*
X149658000Y-58420000D01*
X148388000Y-57150000D02*
X149658000Y-58420000D01*
X143583365Y-60739300D02*
X147338700Y-60739300D01*
X157546000Y-50866000D02*
X151130000Y-44450000D01*
X135942365Y-40302000D02*
X139647635Y-40302000D01*
X142568700Y-43223065D02*
X142568700Y-59724635D01*
X165052000Y-50866000D02*
X157546000Y-50866000D01*
%TO.N,+5*%
X169259290Y-76727090D02*
X169259290Y-70315000D01*
X154686000Y-76200000D02*
X154940000Y-76200000D01*
X157226000Y-78486000D02*
X156972000Y-78486000D01*
X139192000Y-49784000D02*
X141478000Y-52070000D01*
X169259290Y-70315000D02*
X170752000Y-68822290D01*
X171552000Y-49316000D02*
X175502000Y-53266000D01*
X170752000Y-58166000D02*
X170752000Y-53216000D01*
X135382000Y-54356000D02*
X139192000Y-54356000D01*
X139192000Y-41402000D02*
X139192000Y-49784000D01*
X139192000Y-41402000D02*
X136398000Y-41402000D01*
X148844000Y-79756000D02*
X151130000Y-77470000D01*
X171552000Y-46766000D02*
X171552000Y-49316000D01*
X138976100Y-72351900D02*
X138976100Y-57950100D01*
X154686000Y-69342000D02*
X154686000Y-76200000D01*
X138976100Y-57950100D02*
X135382000Y-54356000D01*
X157226000Y-78486000D02*
X159766000Y-78486000D01*
X161247000Y-70315000D02*
X169259290Y-70315000D01*
X156383000Y-67645000D02*
X154686000Y-69342000D01*
X165052000Y-51666000D02*
X169202000Y-51666000D01*
X175502000Y-53266000D02*
X176452000Y-53266000D01*
X162306000Y-78486000D02*
X164846000Y-78486000D01*
X139192000Y-54356000D02*
X141478000Y-52070000D01*
X139192000Y-77724000D02*
X141224000Y-79756000D01*
X159766000Y-78486000D02*
X162306000Y-78486000D01*
X136398000Y-41402000D02*
X135382000Y-42418000D01*
X138976100Y-77508100D02*
X139192000Y-77724000D01*
X154686000Y-76200000D02*
X153416000Y-77470000D01*
X158577000Y-67645000D02*
X156383000Y-67645000D01*
X153416000Y-77470000D02*
X151130000Y-77470000D01*
X159512000Y-68580000D02*
X158577000Y-67645000D01*
X159512000Y-68580000D02*
X161247000Y-70315000D01*
X169202000Y-51666000D02*
X171552000Y-49316000D01*
X171450000Y-78917800D02*
X169259290Y-76727090D01*
X170752000Y-68822290D02*
X170752000Y-58166000D01*
X138976100Y-72351900D02*
X138976100Y-77508100D01*
X154940000Y-76200000D02*
X157226000Y-78486000D01*
X170752000Y-53216000D02*
X169202000Y-51666000D01*
X141224000Y-79756000D02*
X148844000Y-79756000D01*
%TO.N,Net-(D1-A)*%
X143764000Y-73406000D02*
X146812000Y-76454000D01*
X146812000Y-76454000D02*
X146812000Y-77724000D01*
%TO.N,Net-(U1-PB4_(~{SS}))*%
X163606000Y-46766000D02*
X158242000Y-41402000D01*
X166752000Y-46766000D02*
X163606000Y-46766000D01*
%TO.N,/MOSI*%
X133882000Y-60476000D02*
X133882000Y-41796679D01*
X162766000Y-48466000D02*
X165052000Y-48466000D01*
X144018000Y-52070000D02*
X144272000Y-52070000D01*
X155702000Y-41402000D02*
X162766000Y-48466000D01*
X135382000Y-61976000D02*
X133882000Y-60476000D01*
X133882000Y-41796679D02*
X136654679Y-39024000D01*
X136654679Y-39024000D02*
X153416000Y-39024000D01*
%TO.N,GND*%
X171450000Y-56134000D02*
X171552000Y-56236000D01*
X162418000Y-52466000D02*
X165052000Y-52466000D01*
X150114000Y-49606200D02*
X150952200Y-48768000D01*
X156972000Y-73660000D02*
X159512000Y-73660000D01*
X150114000Y-52362100D02*
X150114000Y-49606200D01*
X150114000Y-52362100D02*
X150329900Y-52362100D01*
X168516000Y-52466000D02*
X165052000Y-52466000D01*
X140423900Y-72351900D02*
X142278100Y-72351900D01*
X175550530Y-52466000D02*
X176452000Y-52466000D01*
X142278100Y-72351900D02*
X143764000Y-70866000D01*
X148810700Y-63279300D02*
X153670000Y-58420000D01*
X153670000Y-58420000D02*
X156158000Y-58420000D01*
X150368000Y-52400200D02*
X152908000Y-52400200D01*
X159512000Y-73660000D02*
X162052000Y-73660000D01*
X162052000Y-73660000D02*
X164592000Y-73660000D01*
X170752000Y-49212000D02*
X170180000Y-49784000D01*
X176452000Y-52466000D02*
X178793000Y-52466000D01*
X150114000Y-52362100D02*
X150075900Y-52362100D01*
X149407600Y-53030400D02*
X149407600Y-54411600D01*
X164592000Y-73660000D02*
X169151300Y-78219300D01*
X178793000Y-52466000D02*
X179814000Y-51445000D01*
X162306000Y-52578000D02*
X162418000Y-52466000D01*
X169151300Y-78219300D02*
X169151300Y-78917800D01*
X174826265Y-51741735D02*
X175550530Y-52466000D01*
X153416000Y-58420000D02*
X156158000Y-58420000D01*
X150329900Y-52362100D02*
X150368000Y-52400200D01*
X150075900Y-52362100D02*
X149407600Y-53030400D01*
X157790000Y-58420000D02*
X161544000Y-54666000D01*
X169531000Y-53481000D02*
X168516000Y-52466000D01*
X171552000Y-56236000D02*
X171552000Y-58166000D01*
X179814000Y-51445000D02*
X181064000Y-51445000D01*
X170752000Y-46766000D02*
X170752000Y-49212000D01*
X156158000Y-58420000D02*
X157790000Y-58420000D01*
X141478000Y-62230000D02*
X142527300Y-63279300D01*
X142527300Y-63279300D02*
X148810700Y-63279300D01*
X149407600Y-54411600D02*
X153416000Y-58420000D01*
X171450000Y-55880000D02*
X171450000Y-56134000D01*
%TO.N,/EN*%
X163895000Y-69915000D02*
X168337000Y-69915000D01*
X168337000Y-69915000D02*
X169672000Y-68580000D01*
X163257000Y-63819000D02*
X163257000Y-69277000D01*
X163576000Y-63500000D02*
X163257000Y-63819000D01*
X163576000Y-63500000D02*
X163968000Y-63500000D01*
X168352000Y-59116000D02*
X168352000Y-58166000D01*
X163968000Y-63500000D02*
X168352000Y-59116000D01*
X163257000Y-69277000D02*
X163895000Y-69915000D01*
%TO.N,/D2*%
X177292000Y-64516000D02*
X177292000Y-68580000D01*
X178308000Y-63500000D02*
X173952000Y-59144000D01*
X178308000Y-63500000D02*
X177292000Y-64516000D01*
X173952000Y-59144000D02*
X173952000Y-58166000D01*
%TO.N,/D6*%
X188468000Y-63500000D02*
X188468000Y-67564000D01*
X177859686Y-54866000D02*
X176452000Y-54866000D01*
X188468000Y-67564000D02*
X187452000Y-68580000D01*
X188468000Y-63500000D02*
X186436000Y-61468000D01*
X186436000Y-61468000D02*
X184461686Y-61468000D01*
X184461686Y-61468000D02*
X177859686Y-54866000D01*
%TO.N,Net-(U1-PD3_(INT1))*%
X158496000Y-63500000D02*
X163830000Y-58166000D01*
X163830000Y-58166000D02*
X166752000Y-58166000D01*
%TO.N,/D7*%
X191516000Y-56896000D02*
X190440000Y-55820000D01*
X191008000Y-63500000D02*
X189992000Y-64516000D01*
X179379372Y-55820000D02*
X177625372Y-54066000D01*
X177625372Y-54066000D02*
X176452000Y-54066000D01*
X191516000Y-62992000D02*
X191516000Y-56896000D01*
X191008000Y-63500000D02*
X191516000Y-62992000D01*
X190440000Y-55820000D02*
X179379372Y-55820000D01*
X189992000Y-64516000D02*
X189992000Y-68580000D01*
%TO.N,Net-(U1-PD2_(INT0))*%
X163867685Y-56466000D02*
X165052000Y-56466000D01*
X156833685Y-63500000D02*
X163867685Y-56466000D01*
X155956000Y-63500000D02*
X156833685Y-63500000D01*
%TO.N,Net-(U1-PB1_(T1))*%
X169152000Y-46766000D02*
X169152000Y-45941000D01*
X165862000Y-42651000D02*
X165862000Y-41402000D01*
X169152000Y-45941000D02*
X165862000Y-42651000D01*
%TO.N,/D5*%
X185928000Y-63500000D02*
X178094000Y-55666000D01*
X184912000Y-64516000D02*
X184912000Y-68580000D01*
X185928000Y-63500000D02*
X184912000Y-64516000D01*
X178094000Y-55666000D02*
X176452000Y-55666000D01*
%TO.N,Net-(U1-PA5_(ADC5))*%
X178064000Y-49266000D02*
X185928000Y-41402000D01*
X176452000Y-49266000D02*
X178064000Y-49266000D01*
%TO.N,Net-(U1-PA3_(ADC3))*%
X175484000Y-46766000D02*
X180848000Y-41402000D01*
X174752000Y-46766000D02*
X175484000Y-46766000D01*
%TO.N,/D4*%
X176452000Y-56564000D02*
X176452000Y-56466000D01*
X183388000Y-67564000D02*
X182372000Y-68580000D01*
X183388000Y-63500000D02*
X176452000Y-56564000D01*
X183388000Y-63500000D02*
X183388000Y-67564000D01*
%TO.N,Net-(U1-PB3_(OC0{slash}AIN1))*%
X167552000Y-45941000D02*
X164138500Y-42527500D01*
X167552000Y-46766000D02*
X167552000Y-45941000D01*
X161907500Y-42527500D02*
X160782000Y-41402000D01*
X164138500Y-42527500D02*
X161907500Y-42527500D01*
%TO.N,Net-(U1-PB0_(XCK{slash}T0))*%
X169952000Y-46766000D02*
X169952000Y-42952000D01*
X169952000Y-42952000D02*
X168402000Y-41402000D01*
%TO.N,/D3*%
X180848000Y-63500000D02*
X179832000Y-64516000D01*
X180848000Y-63500000D02*
X175514000Y-58166000D01*
X179832000Y-64516000D02*
X179832000Y-68580000D01*
X175514000Y-58166000D02*
X174752000Y-58166000D01*
%TO.N,Net-(U1-PD4_(OC1B))*%
X167352000Y-59216000D02*
X167552000Y-59016000D01*
X165320000Y-59216000D02*
X167352000Y-59216000D01*
X167552000Y-59016000D02*
X167552000Y-58166000D01*
X161036000Y-63500000D02*
X165320000Y-59216000D01*
%TO.N,/RS*%
X164592000Y-67564000D02*
X164592000Y-68580000D01*
X169952000Y-62204000D02*
X169952000Y-58166000D01*
X168656000Y-63500000D02*
X164592000Y-67564000D01*
X168656000Y-63500000D02*
X169952000Y-62204000D01*
%TO.N,Net-(U1-PB2_(INT2{slash}AIN0))*%
X163938000Y-41402000D02*
X163322000Y-41402000D01*
X168352000Y-46766000D02*
X168352000Y-45816000D01*
X168352000Y-45816000D02*
X163938000Y-41402000D01*
%TO.N,Net-(U1-PA0_(ADC0))*%
X172352000Y-42278000D02*
X173228000Y-41402000D01*
X172352000Y-46766000D02*
X172352000Y-42278000D01*
%TO.N,/MISO*%
X153468410Y-41402000D02*
X161332410Y-49266000D01*
X153162000Y-41402000D02*
X153468410Y-41402000D01*
X161332410Y-49266000D02*
X165052000Y-49266000D01*
%TO.N,/DO*%
X173228000Y-63500000D02*
X172352000Y-62624000D01*
X173228000Y-67564000D02*
X172212000Y-68580000D01*
X173228000Y-63500000D02*
X173228000Y-67564000D01*
X172352000Y-62624000D02*
X172352000Y-58166000D01*
%TO.N,/SCK*%
X163064302Y-47816000D02*
X166027000Y-47816000D01*
X144018000Y-59690000D02*
X142968700Y-58640700D01*
X150622000Y-41402000D02*
X159286000Y-50066000D01*
X159286000Y-50066000D02*
X165052000Y-50066000D01*
X166002000Y-50066000D02*
X165052000Y-50066000D01*
X147034365Y-39624000D02*
X155804698Y-39624000D01*
X157116500Y-41868198D02*
X163064302Y-47816000D01*
X142968700Y-43689665D02*
X147034365Y-39624000D01*
X166102000Y-49966000D02*
X166002000Y-50066000D01*
X142968700Y-58640700D02*
X142968700Y-43689665D01*
X155804698Y-39624000D02*
X157116500Y-40935802D01*
X166102000Y-47891000D02*
X166102000Y-49966000D01*
X157116500Y-40935802D02*
X157116500Y-41868198D01*
X166027000Y-47816000D02*
X166102000Y-47891000D01*
%TO.N,Net-(U1-XTAL2)*%
X158750000Y-52832000D02*
X159184000Y-53266000D01*
X159184000Y-53266000D02*
X165052000Y-53266000D01*
X152908000Y-53848000D02*
X157226000Y-53848000D01*
%TO.N,Net-(U1-PD1_(TXD))*%
X157393500Y-62374500D02*
X164102000Y-55666000D01*
X153416000Y-63500000D02*
X154541500Y-62374500D01*
X164102000Y-55666000D02*
X165052000Y-55666000D01*
X154541500Y-62374500D02*
X157393500Y-62374500D01*
%TO.N,/D1*%
X175768000Y-63500000D02*
X175768000Y-67564000D01*
X175768000Y-63500000D02*
X173152000Y-60884000D01*
X173152000Y-60884000D02*
X173152000Y-58166000D01*
X175768000Y-67564000D02*
X174752000Y-68580000D01*
%TO.N,Net-(U1-AREF)*%
X173482000Y-49530000D02*
X174244000Y-49530000D01*
X175402000Y-50688000D02*
X175402000Y-51441000D01*
X174244000Y-49530000D02*
X175402000Y-50688000D01*
X155194000Y-51562000D02*
X155448000Y-51562000D01*
X152400000Y-48768000D02*
X155194000Y-51562000D01*
X175627000Y-51666000D02*
X176452000Y-51666000D01*
X175402000Y-51441000D02*
X175627000Y-51666000D01*
%TO.N,Net-(U1-XTAL1)*%
X149496500Y-44426300D02*
X157734000Y-52663800D01*
X157905856Y-47951999D02*
X151892000Y-41938143D01*
X150883900Y-54579800D02*
X158201791Y-54579800D01*
X151892000Y-41938143D02*
X151892000Y-40386000D01*
X157734000Y-52663800D02*
X157734000Y-53084409D01*
X158201791Y-54579800D02*
X158715591Y-54066000D01*
X151892000Y-40386000D02*
X151782500Y-40276500D01*
X150114000Y-53809900D02*
X150883900Y-54579800D01*
X149496500Y-40276500D02*
X149496500Y-44426300D01*
X157734000Y-53084409D02*
X158715591Y-54066000D01*
X158715591Y-54066000D02*
X165052000Y-54066000D01*
X151782500Y-40276500D02*
X149496500Y-40276500D01*
X158750000Y-47951999D02*
X157905856Y-47951999D01*
%TO.N,Net-(U1-PA6_(ADC6))*%
X182921802Y-40276500D02*
X187342500Y-40276500D01*
X175402000Y-47891000D02*
X176239698Y-47891000D01*
X187342500Y-40276500D02*
X188468000Y-41402000D01*
X175402000Y-49841000D02*
X175402000Y-47891000D01*
X175627000Y-50066000D02*
X175402000Y-49841000D01*
X182262500Y-40935802D02*
X182921802Y-40276500D01*
X182262500Y-41868198D02*
X182262500Y-40935802D01*
X176239698Y-47891000D02*
X182262500Y-41868198D01*
X176452000Y-50066000D02*
X175627000Y-50066000D01*
%TO.N,Net-(U1-PA2_(ADC2))*%
X173952000Y-45758000D02*
X178308000Y-41402000D01*
X173952000Y-46766000D02*
X173952000Y-45758000D01*
%TO.N,/RW*%
X163657000Y-68967290D02*
X164204710Y-69515000D01*
X166116000Y-63500000D02*
X163657000Y-65959000D01*
X166197000Y-69515000D02*
X167132000Y-68580000D01*
X164204710Y-69515000D02*
X166197000Y-69515000D01*
X166116000Y-63500000D02*
X169152000Y-60464000D01*
X163657000Y-65959000D02*
X163657000Y-68967290D01*
X169152000Y-60464000D02*
X169152000Y-58166000D01*
%TO.N,Net-(U1-PA1_(ADC1))*%
X173152000Y-44018000D02*
X175768000Y-41402000D01*
X173152000Y-46766000D02*
X173152000Y-44018000D01*
%TO.N,Net-(U1-PD0_(RXD))*%
X153524000Y-60852000D02*
X158116000Y-60852000D01*
X164102000Y-54866000D02*
X165052000Y-54866000D01*
X158116000Y-60852000D02*
X164102000Y-54866000D01*
X150876000Y-63500000D02*
X153524000Y-60852000D01*
%TO.N,Net-(U1-PA7_(ADC7))*%
X191770000Y-47244000D02*
X191008000Y-48006000D01*
X191770000Y-42164000D02*
X191770000Y-47244000D01*
X177226000Y-50866000D02*
X176452000Y-50866000D01*
X191008000Y-41402000D02*
X191770000Y-42164000D01*
X191008000Y-48006000D02*
X180086000Y-48006000D01*
X180086000Y-48006000D02*
X177226000Y-50866000D01*
%TO.N,Net-(U1-PA4_(ADC4))*%
X176452000Y-48338000D02*
X183388000Y-41402000D01*
X176452000Y-48466000D02*
X176452000Y-48338000D01*
%TO.N,Net-(U2-IN)*%
X192133500Y-56751500D02*
X185577000Y-50195000D01*
X192133500Y-67760790D02*
X192133500Y-56751500D01*
X180976490Y-78917800D02*
X192133500Y-67760790D01*
X185577000Y-50195000D02*
X181064000Y-50195000D01*
X173748700Y-78917800D02*
X180976490Y-78917800D01*
%TO.N,Net-(R3-WIPER)*%
X151638000Y-74676000D02*
X151671300Y-74709300D01*
X154286000Y-71774000D02*
X154286000Y-69176314D01*
X151130000Y-74930000D02*
X154286000Y-71774000D01*
X160528000Y-67056000D02*
X162052000Y-68580000D01*
X156406314Y-67056000D02*
X160528000Y-67056000D01*
X154286000Y-69176314D02*
X156406314Y-67056000D01*
%TD*%
M02*
